<?xml version="1.0" encoding="UTF-8"?>
<svg id="Layer_2" xmlns="http://www.w3.org/2000/svg" xmlns:xlink="http://www.w3.org/1999/xlink" viewBox="0 0 169.62 48">
  <defs>
    <style>
      .cls-1 {
        fill: url(#radial-gradient);
      }

      .cls-2 {
        fill: #fff;
      }

      .cls-3 {
        fill: #131517;
      }
    </style>
    <radialGradient id="radial-gradient" cx="48.46" cy="-.95" fx="48.46" fy="-.95" r="64.84" gradientUnits="userSpaceOnUse">
      <stop offset="0" stop-color="#9f42c6"/>
      <stop offset=".27" stop-color="#a041c3"/>
      <stop offset=".42" stop-color="#a43ebb"/>
      <stop offset=".53" stop-color="#aa39ad"/>
      <stop offset=".64" stop-color="#b4339a"/>
      <stop offset=".73" stop-color="#c02b81"/>
      <stop offset=".82" stop-color="#cf2061"/>
      <stop offset=".9" stop-color="#e1143c"/>
      <stop offset=".97" stop-color="#f50613"/>
      <stop offset="1" stop-color="red"/>
    </radialGradient>
  </defs>
  <g id="_x2D_-production">
    <g id="logo.default.positive">
      <g id="logomark.square.gradient">
        <path id="background" class="cls-1" d="M48,11.26v25.47c0,6.22-5.05,11.27-11.27,11.27H11.26c-6.22,0-11.26-5.05-11.26-11.27V11.26C0,5.04,5.04,0,11.26,0h25.47c3.32,0,6.3,1.43,8.37,3.72.47.52.89,1.08,1.25,1.68.18.29.34.59.5.89.33.68.6,1.39.79,2.14.1.37.18.76.23,1.15.09.54.13,1.11.13,1.68Z"/>
        <g id="checkbox">
          <path class="cls-2" d="M13.62,17.97l7.92,7.92,1.47-1.47-7.92-7.92-1.47,1.47ZM12.92,18.67l-1.46,1.46,14.4,14.4,1.46-1.47-4.32-4.31L46.35,5.4c-.36-.6-.78-1.16-1.25-1.68l-23.56,23.56-8.62-8.61ZM28.01,32.37l1.47-1.46-2.16-2.16,20.32-20.32c-.19-.75-.46-1.46-.79-2.14l-22.46,22.46,3.62,3.62ZM47.87,9.58l-19.17,19.17,1.47,1.46,17.83-17.83v-1.12c0-.57-.04-1.14-.13-1.68ZM25.16,22.27l-7.92-7.92-1.47,1.47,7.92,7.92,1.47-1.47ZM41.32,35.12c0,3.42-2.78,6.2-6.2,6.2H12.88c-3.42,0-6.2-2.78-6.2-6.2V12.88c0-3.42,2.78-6.21,6.2-6.21h20.78v-2.07H12.88c-4.56,0-8.28,3.71-8.28,8.28v22.24c0,4.56,3.71,8.28,8.28,8.28h22.24c4.56,0,8.28-3.71,8.28-8.28v-3.51h-2.07v3.51Z"/>
        </g>
      </g>
      <g id="logotype.white">
        <path class="cls-3" d="M75.57.09h-5l-1.44,8.74h-4.06v5.73h5.53c-.48.13-.86.44-1.13.93-.27.49-.41,1.04-.41,1.63l.03,15.44c0,2.31.67,4.08,2.01,5.32,1.34,1.24,3.22,1.86,5.64,1.86,1.02,0,2.11-.01,3.25-.04,1.15-.03,2.21-.14,3.2-.32v-5.61c-.58.02-1.22.03-1.93.04s-1.48.01-2.32.01c-1.3,0-2.19-.21-2.67-.64-.47-.43-.71-1.18-.71-2.26V14.56h7.68v-5.73h-7.68V.09ZM100.46,8.19c-1.53,0-2.83.32-3.91.96-1.08.64-1.95,1.49-2.62,2.56-.67,1.06-1.19,2.22-1.56,3.49-.16.54-.28,1.08-.4,1.61l-.49-7.98h-5.64v30.47h6.59v-20.44c.32-.86.83-1.57,1.54-2.15.71-.58,1.48-1.01,2.32-1.3.84-.29,1.62-.43,2.35-.43.61,0,1.28.03,1.98.08s1.38.2,2.01.42v-7.04c-.32-.09-.66-.16-1.02-.2-.36-.04-.74-.06-1.13-.06ZM124.25,10.52c-1.06-.83-2.28-1.41-3.66-1.76s-2.83-.52-4.36-.52c-2.61,0-4.86.4-6.77,1.2-1.91.8-3.34,2.04-4.3,3.73-.96,1.69-1.34,3.84-1.13,6.46h6c.04-1.6.27-2.83.71-3.67.44-.85,1.08-1.43,1.94-1.75.86-.32,1.92-.47,3.18-.47,1.97,0,3.37.52,4.2,1.55.83,1.03,1.24,2.59,1.24,4.68v1.26c-.61.04-1.49.11-2.64.21s-2.38.23-3.7.39c-1.32.16-2.57.37-3.74.63-1.71.35-3.18.89-4.41,1.61-1.23.72-2.17,1.66-2.82,2.82-.65,1.16-.98,2.64-.98,4.43,0,1.64.41,3.09,1.21,4.34.81,1.26,1.94,2.23,3.38,2.93,1.44.7,3.08,1.05,4.9,1.05,2.62,0,4.66-.68,6.1-2.04,1.44-1.36,2.34-3.06,2.69-5.11l-.08,6.81h6.45v-19.94c0-2.2-.31-4.01-.92-5.45s-1.45-2.56-2.51-3.39ZM121.32,30.48c-.19.86-.66,1.6-1.41,2.23-.75.63-1.63,1.11-2.64,1.44-1.01.33-1.99.49-2.96.49-.73.02-1.41-.13-2.04-.46-.63-.33-1.15-.79-1.54-1.38-.39-.6-.59-1.3-.59-2.12,0-1.45.47-2.53,1.4-3.23.93-.7,2.44-1.25,4.52-1.66.73-.17,1.6-.34,2.61-.52,1.01-.18,1.89-.3,2.64-.38v5.59ZM169.62,14.56v-5.73h-7.68V.09h-5l-1.44,8.74h-1.93,0s-7.8,0-7.8,0l-7.53,10.61-2.33,4.05v-14.66h-6.67v30.48h6.67v-8.5l3.39-4.25,7.35,12.75h7.94l-10.63-17.36,7.46-10.19v2.81h5.53c-.48.13-.86.44-1.13.93-.27.49-.41,1.04-.41,1.63l.03,15.44c0,2.31.67,4.08,2.01,5.32,1.34,1.24,3.22,1.86,5.64,1.86,1.02,0,2.11-.01,3.25-.04,1.15-.03,2.21-.14,3.2-.32v-5.61c-.58.02-1.22.03-1.93.04s-1.48.01-2.32.01c-1.3,0-2.19-.21-2.67-.64-.47-.43-.71-1.18-.71-2.26V14.56h7.68Z"/>
      </g>
    </g>
  </g>
</svg>