<svg xmlns="http://www.w3.org/2000/svg" viewBox="0 0 180 232" width="180" height="270" preserveAspectRatio="xMidYMid slice" role="img" aria-labelledby="cover-5-title"><title id="cover-5-title">The Matrix — illustrated movies cover</title><defs><clipPath id="cover-5-art"><rect width="180" height="232"/></clipPath><clipPath id="matrix-screen"><rect x="45" y="88" width="95" height="65"/></clipPath></defs><g clip-path="url(#cover-5-art)">
<path fill="#233e34" d="M0 0h180v232H0Z"/>
<g class="cover-code cover-code-0" opacity="0.25" fill="none" stroke="#aac49f" stroke-width="1"><path d="M12 -72h5v7h-5v-7m2 1v5M12 -60h4m-2 0v6m-2 0h4M12 -45h5v7h-5v-7m2 1v5M12 -33h4m-2 0v6m-2 0h4M12 -23h5v7h-5v-7m2 1v5M12 -11h4m-2 0v6m-2 0h4M12 0h5v7h-5v-7m2 1v5M12 12h4m-2 0v6m-2 0h4M12 27h5v7h-5v-7m2 1v5M12 39h4m-2 0v6m-2 0h4M12 49h5v7h-5v-7m2 1v5M12 61h4m-2 0v6m-2 0h4M12 72h5v7h-5v-7m2 1v5M12 84h4m-2 0v6m-2 0h4M12 99h5v7h-5v-7m2 1v5M12 111h4m-2 0v6m-2 0h4M12 121h5v7h-5v-7m2 1v5M12 133h4m-2 0v6m-2 0h4M12 144h5v7h-5v-7m2 1v5M12 156h4m-2 0v6m-2 0h4M12 171h5v7h-5v-7m2 1v5M12 183h4m-2 0v6m-2 0h4M12 193h5v7h-5v-7m2 1v5M12 205h4m-2 0v6m-2 0h4M12 216h5v7h-5v-7m2 1v5M12 228h4m-2 0v6m-2 0h4M12 243h5v7h-5v-7m2 1v5M12 255h4m-2 0v6m-2 0h4M12 265h5v7h-5v-7m2 1v5M12 277h4m-2 0v6m-2 0h4M12 288h5v7h-5v-7m2 1v5M12 300h4m-2 0v6m-2 0h4M12 315h5v7h-5v-7m2 1v5M12 327h4m-2 0v6m-2 0h4M12 337h5v7h-5v-7m2 1v5M12 349h4m-2 0v6m-2 0h4"/></g><g class="cover-code cover-code-1" opacity="0.35" fill="none" stroke="#aac49f" stroke-width="1"><path d="M30 -67h5v7h-5v-7m2 1v5M30 -55h4m-2 0v6m-2 0h4M30 -45h5v7h-5v-7m2 1v5M30 -33h4m-2 0v6m-2 0h4M30 -23h5v7h-5v-7m2 1v5M30 -11h4m-2 0v6m-2 0h4M30 5h5v7h-5v-7m2 1v5M30 17h4m-2 0v6m-2 0h4M30 27h5v7h-5v-7m2 1v5M30 39h4m-2 0v6m-2 0h4M30 49h5v7h-5v-7m2 1v5M30 61h4m-2 0v6m-2 0h4M30 77h5v7h-5v-7m2 1v5M30 89h4m-2 0v6m-2 0h4M30 99h5v7h-5v-7m2 1v5M30 111h4m-2 0v6m-2 0h4M30 121h5v7h-5v-7m2 1v5M30 133h4m-2 0v6m-2 0h4M30 149h5v7h-5v-7m2 1v5M30 161h4m-2 0v6m-2 0h4M30 171h5v7h-5v-7m2 1v5M30 183h4m-2 0v6m-2 0h4M30 193h5v7h-5v-7m2 1v5M30 205h4m-2 0v6m-2 0h4M30 221h5v7h-5v-7m2 1v5M30 233h4m-2 0v6m-2 0h4M30 243h5v7h-5v-7m2 1v5M30 255h4m-2 0v6m-2 0h4M30 265h5v7h-5v-7m2 1v5M30 277h4m-2 0v6m-2 0h4M30 293h5v7h-5v-7m2 1v5M30 305h4m-2 0v6m-2 0h4M30 315h5v7h-5v-7m2 1v5M30 327h4m-2 0v6m-2 0h4M30 337h5v7h-5v-7m2 1v5M30 349h4m-2 0v6m-2 0h4"/></g><g class="cover-code cover-code-2" opacity="0.45" fill="none" stroke="#aac49f" stroke-width="1"><path d="M48 -62h5v7h-5v-7m2 1v5M48 -50h4m-2 0v6m-2 0h4M48 -45h5v7h-5v-7m2 1v5M48 -33h4m-2 0v6m-2 0h4M48 -23h5v7h-5v-7m2 1v5M48 -11h4m-2 0v6m-2 0h4M48 10h5v7h-5v-7m2 1v5M48 22h4m-2 0v6m-2 0h4M48 27h5v7h-5v-7m2 1v5M48 39h4m-2 0v6m-2 0h4M48 49h5v7h-5v-7m2 1v5M48 61h4m-2 0v6m-2 0h4M48 82h5v7h-5v-7m2 1v5M48 94h4m-2 0v6m-2 0h4M48 99h5v7h-5v-7m2 1v5M48 111h4m-2 0v6m-2 0h4M48 121h5v7h-5v-7m2 1v5M48 133h4m-2 0v6m-2 0h4M48 154h5v7h-5v-7m2 1v5M48 166h4m-2 0v6m-2 0h4M48 171h5v7h-5v-7m2 1v5M48 183h4m-2 0v6m-2 0h4M48 193h5v7h-5v-7m2 1v5M48 205h4m-2 0v6m-2 0h4M48 226h5v7h-5v-7m2 1v5M48 238h4m-2 0v6m-2 0h4M48 243h5v7h-5v-7m2 1v5M48 255h4m-2 0v6m-2 0h4M48 265h5v7h-5v-7m2 1v5M48 277h4m-2 0v6m-2 0h4M48 298h5v7h-5v-7m2 1v5M48 310h4m-2 0v6m-2 0h4M48 315h5v7h-5v-7m2 1v5M48 327h4m-2 0v6m-2 0h4M48 337h5v7h-5v-7m2 1v5M48 349h4m-2 0v6m-2 0h4"/></g><g class="cover-code cover-code-0" opacity="0.25" fill="none" stroke="#aac49f" stroke-width="1"><path d="M66 -72h5v7h-5v-7m2 1v5M66 -60h4m-2 0v6m-2 0h4M66 -45h5v7h-5v-7m2 1v5M66 -33h4m-2 0v6m-2 0h4M66 -23h5v7h-5v-7m2 1v5M66 -11h4m-2 0v6m-2 0h4M66 0h5v7h-5v-7m2 1v5M66 12h4m-2 0v6m-2 0h4M66 27h5v7h-5v-7m2 1v5M66 39h4m-2 0v6m-2 0h4M66 49h5v7h-5v-7m2 1v5M66 61h4m-2 0v6m-2 0h4M66 72h5v7h-5v-7m2 1v5M66 84h4m-2 0v6m-2 0h4M66 99h5v7h-5v-7m2 1v5M66 111h4m-2 0v6m-2 0h4M66 121h5v7h-5v-7m2 1v5M66 133h4m-2 0v6m-2 0h4M66 144h5v7h-5v-7m2 1v5M66 156h4m-2 0v6m-2 0h4M66 171h5v7h-5v-7m2 1v5M66 183h4m-2 0v6m-2 0h4M66 193h5v7h-5v-7m2 1v5M66 205h4m-2 0v6m-2 0h4M66 216h5v7h-5v-7m2 1v5M66 228h4m-2 0v6m-2 0h4M66 243h5v7h-5v-7m2 1v5M66 255h4m-2 0v6m-2 0h4M66 265h5v7h-5v-7m2 1v5M66 277h4m-2 0v6m-2 0h4M66 288h5v7h-5v-7m2 1v5M66 300h4m-2 0v6m-2 0h4M66 315h5v7h-5v-7m2 1v5M66 327h4m-2 0v6m-2 0h4M66 337h5v7h-5v-7m2 1v5M66 349h4m-2 0v6m-2 0h4"/></g><g class="cover-code cover-code-1" opacity="0.35" fill="none" stroke="#aac49f" stroke-width="1"><path d="M84 -67h5v7h-5v-7m2 1v5M84 -55h4m-2 0v6m-2 0h4M84 -45h5v7h-5v-7m2 1v5M84 -33h4m-2 0v6m-2 0h4M84 -23h5v7h-5v-7m2 1v5M84 -11h4m-2 0v6m-2 0h4M84 5h5v7h-5v-7m2 1v5M84 17h4m-2 0v6m-2 0h4M84 27h5v7h-5v-7m2 1v5M84 39h4m-2 0v6m-2 0h4M84 49h5v7h-5v-7m2 1v5M84 61h4m-2 0v6m-2 0h4M84 77h5v7h-5v-7m2 1v5M84 89h4m-2 0v6m-2 0h4M84 99h5v7h-5v-7m2 1v5M84 111h4m-2 0v6m-2 0h4M84 121h5v7h-5v-7m2 1v5M84 133h4m-2 0v6m-2 0h4M84 149h5v7h-5v-7m2 1v5M84 161h4m-2 0v6m-2 0h4M84 171h5v7h-5v-7m2 1v5M84 183h4m-2 0v6m-2 0h4M84 193h5v7h-5v-7m2 1v5M84 205h4m-2 0v6m-2 0h4M84 221h5v7h-5v-7m2 1v5M84 233h4m-2 0v6m-2 0h4M84 243h5v7h-5v-7m2 1v5M84 255h4m-2 0v6m-2 0h4M84 265h5v7h-5v-7m2 1v5M84 277h4m-2 0v6m-2 0h4M84 293h5v7h-5v-7m2 1v5M84 305h4m-2 0v6m-2 0h4M84 315h5v7h-5v-7m2 1v5M84 327h4m-2 0v6m-2 0h4M84 337h5v7h-5v-7m2 1v5M84 349h4m-2 0v6m-2 0h4"/></g><g class="cover-code cover-code-2" opacity="0.45" fill="none" stroke="#aac49f" stroke-width="1"><path d="M102 -62h5v7h-5v-7m2 1v5M102 -50h4m-2 0v6m-2 0h4M102 -45h5v7h-5v-7m2 1v5M102 -33h4m-2 0v6m-2 0h4M102 -23h5v7h-5v-7m2 1v5M102 -11h4m-2 0v6m-2 0h4M102 10h5v7h-5v-7m2 1v5M102 22h4m-2 0v6m-2 0h4M102 27h5v7h-5v-7m2 1v5M102 39h4m-2 0v6m-2 0h4M102 49h5v7h-5v-7m2 1v5M102 61h4m-2 0v6m-2 0h4M102 82h5v7h-5v-7m2 1v5M102 94h4m-2 0v6m-2 0h4M102 99h5v7h-5v-7m2 1v5M102 111h4m-2 0v6m-2 0h4M102 121h5v7h-5v-7m2 1v5M102 133h4m-2 0v6m-2 0h4M102 154h5v7h-5v-7m2 1v5M102 166h4m-2 0v6m-2 0h4M102 171h5v7h-5v-7m2 1v5M102 183h4m-2 0v6m-2 0h4M102 193h5v7h-5v-7m2 1v5M102 205h4m-2 0v6m-2 0h4M102 226h5v7h-5v-7m2 1v5M102 238h4m-2 0v6m-2 0h4M102 243h5v7h-5v-7m2 1v5M102 255h4m-2 0v6m-2 0h4M102 265h5v7h-5v-7m2 1v5M102 277h4m-2 0v6m-2 0h4M102 298h5v7h-5v-7m2 1v5M102 310h4m-2 0v6m-2 0h4M102 315h5v7h-5v-7m2 1v5M102 327h4m-2 0v6m-2 0h4M102 337h5v7h-5v-7m2 1v5M102 349h4m-2 0v6m-2 0h4"/></g><g class="cover-code cover-code-0" opacity="0.25" fill="none" stroke="#aac49f" stroke-width="1"><path d="M120 -72h5v7h-5v-7m2 1v5M120 -60h4m-2 0v6m-2 0h4M120 -45h5v7h-5v-7m2 1v5M120 -33h4m-2 0v6m-2 0h4M120 -23h5v7h-5v-7m2 1v5M120 -11h4m-2 0v6m-2 0h4M120 0h5v7h-5v-7m2 1v5M120 12h4m-2 0v6m-2 0h4M120 27h5v7h-5v-7m2 1v5M120 39h4m-2 0v6m-2 0h4M120 49h5v7h-5v-7m2 1v5M120 61h4m-2 0v6m-2 0h4M120 72h5v7h-5v-7m2 1v5M120 84h4m-2 0v6m-2 0h4M120 99h5v7h-5v-7m2 1v5M120 111h4m-2 0v6m-2 0h4M120 121h5v7h-5v-7m2 1v5M120 133h4m-2 0v6m-2 0h4M120 144h5v7h-5v-7m2 1v5M120 156h4m-2 0v6m-2 0h4M120 171h5v7h-5v-7m2 1v5M120 183h4m-2 0v6m-2 0h4M120 193h5v7h-5v-7m2 1v5M120 205h4m-2 0v6m-2 0h4M120 216h5v7h-5v-7m2 1v5M120 228h4m-2 0v6m-2 0h4M120 243h5v7h-5v-7m2 1v5M120 255h4m-2 0v6m-2 0h4M120 265h5v7h-5v-7m2 1v5M120 277h4m-2 0v6m-2 0h4M120 288h5v7h-5v-7m2 1v5M120 300h4m-2 0v6m-2 0h4M120 315h5v7h-5v-7m2 1v5M120 327h4m-2 0v6m-2 0h4M120 337h5v7h-5v-7m2 1v5M120 349h4m-2 0v6m-2 0h4"/></g><g class="cover-code cover-code-1" opacity="0.35" fill="none" stroke="#aac49f" stroke-width="1"><path d="M138 -67h5v7h-5v-7m2 1v5M138 -55h4m-2 0v6m-2 0h4M138 -45h5v7h-5v-7m2 1v5M138 -33h4m-2 0v6m-2 0h4M138 -23h5v7h-5v-7m2 1v5M138 -11h4m-2 0v6m-2 0h4M138 5h5v7h-5v-7m2 1v5M138 17h4m-2 0v6m-2 0h4M138 27h5v7h-5v-7m2 1v5M138 39h4m-2 0v6m-2 0h4M138 49h5v7h-5v-7m2 1v5M138 61h4m-2 0v6m-2 0h4M138 77h5v7h-5v-7m2 1v5M138 89h4m-2 0v6m-2 0h4M138 99h5v7h-5v-7m2 1v5M138 111h4m-2 0v6m-2 0h4M138 121h5v7h-5v-7m2 1v5M138 133h4m-2 0v6m-2 0h4M138 149h5v7h-5v-7m2 1v5M138 161h4m-2 0v6m-2 0h4M138 171h5v7h-5v-7m2 1v5M138 183h4m-2 0v6m-2 0h4M138 193h5v7h-5v-7m2 1v5M138 205h4m-2 0v6m-2 0h4M138 221h5v7h-5v-7m2 1v5M138 233h4m-2 0v6m-2 0h4M138 243h5v7h-5v-7m2 1v5M138 255h4m-2 0v6m-2 0h4M138 265h5v7h-5v-7m2 1v5M138 277h4m-2 0v6m-2 0h4M138 293h5v7h-5v-7m2 1v5M138 305h4m-2 0v6m-2 0h4M138 315h5v7h-5v-7m2 1v5M138 327h4m-2 0v6m-2 0h4M138 337h5v7h-5v-7m2 1v5M138 349h4m-2 0v6m-2 0h4"/></g><g class="cover-code cover-code-2" opacity="0.45" fill="none" stroke="#aac49f" stroke-width="1"><path d="M156 -62h5v7h-5v-7m2 1v5M156 -50h4m-2 0v6m-2 0h4M156 -45h5v7h-5v-7m2 1v5M156 -33h4m-2 0v6m-2 0h4M156 -23h5v7h-5v-7m2 1v5M156 -11h4m-2 0v6m-2 0h4M156 10h5v7h-5v-7m2 1v5M156 22h4m-2 0v6m-2 0h4M156 27h5v7h-5v-7m2 1v5M156 39h4m-2 0v6m-2 0h4M156 49h5v7h-5v-7m2 1v5M156 61h4m-2 0v6m-2 0h4M156 82h5v7h-5v-7m2 1v5M156 94h4m-2 0v6m-2 0h4M156 99h5v7h-5v-7m2 1v5M156 111h4m-2 0v6m-2 0h4M156 121h5v7h-5v-7m2 1v5M156 133h4m-2 0v6m-2 0h4M156 154h5v7h-5v-7m2 1v5M156 166h4m-2 0v6m-2 0h4M156 171h5v7h-5v-7m2 1v5M156 183h4m-2 0v6m-2 0h4M156 193h5v7h-5v-7m2 1v5M156 205h4m-2 0v6m-2 0h4M156 226h5v7h-5v-7m2 1v5M156 238h4m-2 0v6m-2 0h4M156 243h5v7h-5v-7m2 1v5M156 255h4m-2 0v6m-2 0h4M156 265h5v7h-5v-7m2 1v5M156 277h4m-2 0v6m-2 0h4M156 298h5v7h-5v-7m2 1v5M156 310h4m-2 0v6m-2 0h4M156 315h5v7h-5v-7m2 1v5M156 327h4m-2 0v6m-2 0h4M156 337h5v7h-5v-7m2 1v5M156 349h4m-2 0v6m-2 0h4"/></g><g class="cover-code cover-code-0" opacity="0.25" fill="none" stroke="#aac49f" stroke-width="1"><path d="M174 -72h5v7h-5v-7m2 1v5M174 -60h4m-2 0v6m-2 0h4M174 -45h5v7h-5v-7m2 1v5M174 -33h4m-2 0v6m-2 0h4M174 -23h5v7h-5v-7m2 1v5M174 -11h4m-2 0v6m-2 0h4M174 0h5v7h-5v-7m2 1v5M174 12h4m-2 0v6m-2 0h4M174 27h5v7h-5v-7m2 1v5M174 39h4m-2 0v6m-2 0h4M174 49h5v7h-5v-7m2 1v5M174 61h4m-2 0v6m-2 0h4M174 72h5v7h-5v-7m2 1v5M174 84h4m-2 0v6m-2 0h4M174 99h5v7h-5v-7m2 1v5M174 111h4m-2 0v6m-2 0h4M174 121h5v7h-5v-7m2 1v5M174 133h4m-2 0v6m-2 0h4M174 144h5v7h-5v-7m2 1v5M174 156h4m-2 0v6m-2 0h4M174 171h5v7h-5v-7m2 1v5M174 183h4m-2 0v6m-2 0h4M174 193h5v7h-5v-7m2 1v5M174 205h4m-2 0v6m-2 0h4M174 216h5v7h-5v-7m2 1v5M174 228h4m-2 0v6m-2 0h4M174 243h5v7h-5v-7m2 1v5M174 255h4m-2 0v6m-2 0h4M174 265h5v7h-5v-7m2 1v5M174 277h4m-2 0v6m-2 0h4M174 288h5v7h-5v-7m2 1v5M174 300h4m-2 0v6m-2 0h4M174 315h5v7h-5v-7m2 1v5M174 327h4m-2 0v6m-2 0h4M174 337h5v7h-5v-7m2 1v5M174 349h4m-2 0v6m-2 0h4"/></g>
<path d="M0 179l180-19v72H0Z" fill="#182e28"/>
<path d="M37 80h111l-6 90H42Z" fill="#779782"/><path d="M45 88h95v65H45Z" fill="#0f2923"/>
<g clip-path="url(#matrix-screen)" class="cover-terminal"><g class="cover-code cover-code-0" opacity="0.25" fill="none" stroke="#aac49f" stroke-width="1"><path d="M12 -72h5v7h-5v-7m2 1v5M12 -60h4m-2 0v6m-2 0h4M12 -45h5v7h-5v-7m2 1v5M12 -33h4m-2 0v6m-2 0h4M12 -23h5v7h-5v-7m2 1v5M12 -11h4m-2 0v6m-2 0h4M12 0h5v7h-5v-7m2 1v5M12 12h4m-2 0v6m-2 0h4M12 27h5v7h-5v-7m2 1v5M12 39h4m-2 0v6m-2 0h4M12 49h5v7h-5v-7m2 1v5M12 61h4m-2 0v6m-2 0h4M12 72h5v7h-5v-7m2 1v5M12 84h4m-2 0v6m-2 0h4M12 99h5v7h-5v-7m2 1v5M12 111h4m-2 0v6m-2 0h4M12 121h5v7h-5v-7m2 1v5M12 133h4m-2 0v6m-2 0h4M12 144h5v7h-5v-7m2 1v5M12 156h4m-2 0v6m-2 0h4M12 171h5v7h-5v-7m2 1v5M12 183h4m-2 0v6m-2 0h4M12 193h5v7h-5v-7m2 1v5M12 205h4m-2 0v6m-2 0h4M12 216h5v7h-5v-7m2 1v5M12 228h4m-2 0v6m-2 0h4M12 243h5v7h-5v-7m2 1v5M12 255h4m-2 0v6m-2 0h4M12 265h5v7h-5v-7m2 1v5M12 277h4m-2 0v6m-2 0h4M12 288h5v7h-5v-7m2 1v5M12 300h4m-2 0v6m-2 0h4M12 315h5v7h-5v-7m2 1v5M12 327h4m-2 0v6m-2 0h4M12 337h5v7h-5v-7m2 1v5M12 349h4m-2 0v6m-2 0h4"/></g><g class="cover-code cover-code-1" opacity="0.35" fill="none" stroke="#aac49f" stroke-width="1"><path d="M30 -67h5v7h-5v-7m2 1v5M30 -55h4m-2 0v6m-2 0h4M30 -45h5v7h-5v-7m2 1v5M30 -33h4m-2 0v6m-2 0h4M30 -23h5v7h-5v-7m2 1v5M30 -11h4m-2 0v6m-2 0h4M30 5h5v7h-5v-7m2 1v5M30 17h4m-2 0v6m-2 0h4M30 27h5v7h-5v-7m2 1v5M30 39h4m-2 0v6m-2 0h4M30 49h5v7h-5v-7m2 1v5M30 61h4m-2 0v6m-2 0h4M30 77h5v7h-5v-7m2 1v5M30 89h4m-2 0v6m-2 0h4M30 99h5v7h-5v-7m2 1v5M30 111h4m-2 0v6m-2 0h4M30 121h5v7h-5v-7m2 1v5M30 133h4m-2 0v6m-2 0h4M30 149h5v7h-5v-7m2 1v5M30 161h4m-2 0v6m-2 0h4M30 171h5v7h-5v-7m2 1v5M30 183h4m-2 0v6m-2 0h4M30 193h5v7h-5v-7m2 1v5M30 205h4m-2 0v6m-2 0h4M30 221h5v7h-5v-7m2 1v5M30 233h4m-2 0v6m-2 0h4M30 243h5v7h-5v-7m2 1v5M30 255h4m-2 0v6m-2 0h4M30 265h5v7h-5v-7m2 1v5M30 277h4m-2 0v6m-2 0h4M30 293h5v7h-5v-7m2 1v5M30 305h4m-2 0v6m-2 0h4M30 315h5v7h-5v-7m2 1v5M30 327h4m-2 0v6m-2 0h4M30 337h5v7h-5v-7m2 1v5M30 349h4m-2 0v6m-2 0h4"/></g><g class="cover-code cover-code-2" opacity="0.45" fill="none" stroke="#aac49f" stroke-width="1"><path d="M48 -62h5v7h-5v-7m2 1v5M48 -50h4m-2 0v6m-2 0h4M48 -45h5v7h-5v-7m2 1v5M48 -33h4m-2 0v6m-2 0h4M48 -23h5v7h-5v-7m2 1v5M48 -11h4m-2 0v6m-2 0h4M48 10h5v7h-5v-7m2 1v5M48 22h4m-2 0v6m-2 0h4M48 27h5v7h-5v-7m2 1v5M48 39h4m-2 0v6m-2 0h4M48 49h5v7h-5v-7m2 1v5M48 61h4m-2 0v6m-2 0h4M48 82h5v7h-5v-7m2 1v5M48 94h4m-2 0v6m-2 0h4M48 99h5v7h-5v-7m2 1v5M48 111h4m-2 0v6m-2 0h4M48 121h5v7h-5v-7m2 1v5M48 133h4m-2 0v6m-2 0h4M48 154h5v7h-5v-7m2 1v5M48 166h4m-2 0v6m-2 0h4M48 171h5v7h-5v-7m2 1v5M48 183h4m-2 0v6m-2 0h4M48 193h5v7h-5v-7m2 1v5M48 205h4m-2 0v6m-2 0h4M48 226h5v7h-5v-7m2 1v5M48 238h4m-2 0v6m-2 0h4M48 243h5v7h-5v-7m2 1v5M48 255h4m-2 0v6m-2 0h4M48 265h5v7h-5v-7m2 1v5M48 277h4m-2 0v6m-2 0h4M48 298h5v7h-5v-7m2 1v5M48 310h4m-2 0v6m-2 0h4M48 315h5v7h-5v-7m2 1v5M48 327h4m-2 0v6m-2 0h4M48 337h5v7h-5v-7m2 1v5M48 349h4m-2 0v6m-2 0h4"/></g><g class="cover-code cover-code-0" opacity="0.25" fill="none" stroke="#aac49f" stroke-width="1"><path d="M66 -72h5v7h-5v-7m2 1v5M66 -60h4m-2 0v6m-2 0h4M66 -45h5v7h-5v-7m2 1v5M66 -33h4m-2 0v6m-2 0h4M66 -23h5v7h-5v-7m2 1v5M66 -11h4m-2 0v6m-2 0h4M66 0h5v7h-5v-7m2 1v5M66 12h4m-2 0v6m-2 0h4M66 27h5v7h-5v-7m2 1v5M66 39h4m-2 0v6m-2 0h4M66 49h5v7h-5v-7m2 1v5M66 61h4m-2 0v6m-2 0h4M66 72h5v7h-5v-7m2 1v5M66 84h4m-2 0v6m-2 0h4M66 99h5v7h-5v-7m2 1v5M66 111h4m-2 0v6m-2 0h4M66 121h5v7h-5v-7m2 1v5M66 133h4m-2 0v6m-2 0h4M66 144h5v7h-5v-7m2 1v5M66 156h4m-2 0v6m-2 0h4M66 171h5v7h-5v-7m2 1v5M66 183h4m-2 0v6m-2 0h4M66 193h5v7h-5v-7m2 1v5M66 205h4m-2 0v6m-2 0h4M66 216h5v7h-5v-7m2 1v5M66 228h4m-2 0v6m-2 0h4M66 243h5v7h-5v-7m2 1v5M66 255h4m-2 0v6m-2 0h4M66 265h5v7h-5v-7m2 1v5M66 277h4m-2 0v6m-2 0h4M66 288h5v7h-5v-7m2 1v5M66 300h4m-2 0v6m-2 0h4M66 315h5v7h-5v-7m2 1v5M66 327h4m-2 0v6m-2 0h4M66 337h5v7h-5v-7m2 1v5M66 349h4m-2 0v6m-2 0h4"/></g><g class="cover-code cover-code-1" opacity="0.35" fill="none" stroke="#aac49f" stroke-width="1"><path d="M84 -67h5v7h-5v-7m2 1v5M84 -55h4m-2 0v6m-2 0h4M84 -45h5v7h-5v-7m2 1v5M84 -33h4m-2 0v6m-2 0h4M84 -23h5v7h-5v-7m2 1v5M84 -11h4m-2 0v6m-2 0h4M84 5h5v7h-5v-7m2 1v5M84 17h4m-2 0v6m-2 0h4M84 27h5v7h-5v-7m2 1v5M84 39h4m-2 0v6m-2 0h4M84 49h5v7h-5v-7m2 1v5M84 61h4m-2 0v6m-2 0h4M84 77h5v7h-5v-7m2 1v5M84 89h4m-2 0v6m-2 0h4M84 99h5v7h-5v-7m2 1v5M84 111h4m-2 0v6m-2 0h4M84 121h5v7h-5v-7m2 1v5M84 133h4m-2 0v6m-2 0h4M84 149h5v7h-5v-7m2 1v5M84 161h4m-2 0v6m-2 0h4M84 171h5v7h-5v-7m2 1v5M84 183h4m-2 0v6m-2 0h4M84 193h5v7h-5v-7m2 1v5M84 205h4m-2 0v6m-2 0h4M84 221h5v7h-5v-7m2 1v5M84 233h4m-2 0v6m-2 0h4M84 243h5v7h-5v-7m2 1v5M84 255h4m-2 0v6m-2 0h4M84 265h5v7h-5v-7m2 1v5M84 277h4m-2 0v6m-2 0h4M84 293h5v7h-5v-7m2 1v5M84 305h4m-2 0v6m-2 0h4M84 315h5v7h-5v-7m2 1v5M84 327h4m-2 0v6m-2 0h4M84 337h5v7h-5v-7m2 1v5M84 349h4m-2 0v6m-2 0h4"/></g><g class="cover-code cover-code-2" opacity="0.45" fill="none" stroke="#aac49f" stroke-width="1"><path d="M102 -62h5v7h-5v-7m2 1v5M102 -50h4m-2 0v6m-2 0h4M102 -45h5v7h-5v-7m2 1v5M102 -33h4m-2 0v6m-2 0h4M102 -23h5v7h-5v-7m2 1v5M102 -11h4m-2 0v6m-2 0h4M102 10h5v7h-5v-7m2 1v5M102 22h4m-2 0v6m-2 0h4M102 27h5v7h-5v-7m2 1v5M102 39h4m-2 0v6m-2 0h4M102 49h5v7h-5v-7m2 1v5M102 61h4m-2 0v6m-2 0h4M102 82h5v7h-5v-7m2 1v5M102 94h4m-2 0v6m-2 0h4M102 99h5v7h-5v-7m2 1v5M102 111h4m-2 0v6m-2 0h4M102 121h5v7h-5v-7m2 1v5M102 133h4m-2 0v6m-2 0h4M102 154h5v7h-5v-7m2 1v5M102 166h4m-2 0v6m-2 0h4M102 171h5v7h-5v-7m2 1v5M102 183h4m-2 0v6m-2 0h4M102 193h5v7h-5v-7m2 1v5M102 205h4m-2 0v6m-2 0h4M102 226h5v7h-5v-7m2 1v5M102 238h4m-2 0v6m-2 0h4M102 243h5v7h-5v-7m2 1v5M102 255h4m-2 0v6m-2 0h4M102 265h5v7h-5v-7m2 1v5M102 277h4m-2 0v6m-2 0h4M102 298h5v7h-5v-7m2 1v5M102 310h4m-2 0v6m-2 0h4M102 315h5v7h-5v-7m2 1v5M102 327h4m-2 0v6m-2 0h4M102 337h5v7h-5v-7m2 1v5M102 349h4m-2 0v6m-2 0h4"/></g><g class="cover-code cover-code-0" opacity="0.25" fill="none" stroke="#aac49f" stroke-width="1"><path d="M120 -72h5v7h-5v-7m2 1v5M120 -60h4m-2 0v6m-2 0h4M120 -45h5v7h-5v-7m2 1v5M120 -33h4m-2 0v6m-2 0h4M120 -23h5v7h-5v-7m2 1v5M120 -11h4m-2 0v6m-2 0h4M120 0h5v7h-5v-7m2 1v5M120 12h4m-2 0v6m-2 0h4M120 27h5v7h-5v-7m2 1v5M120 39h4m-2 0v6m-2 0h4M120 49h5v7h-5v-7m2 1v5M120 61h4m-2 0v6m-2 0h4M120 72h5v7h-5v-7m2 1v5M120 84h4m-2 0v6m-2 0h4M120 99h5v7h-5v-7m2 1v5M120 111h4m-2 0v6m-2 0h4M120 121h5v7h-5v-7m2 1v5M120 133h4m-2 0v6m-2 0h4M120 144h5v7h-5v-7m2 1v5M120 156h4m-2 0v6m-2 0h4M120 171h5v7h-5v-7m2 1v5M120 183h4m-2 0v6m-2 0h4M120 193h5v7h-5v-7m2 1v5M120 205h4m-2 0v6m-2 0h4M120 216h5v7h-5v-7m2 1v5M120 228h4m-2 0v6m-2 0h4M120 243h5v7h-5v-7m2 1v5M120 255h4m-2 0v6m-2 0h4M120 265h5v7h-5v-7m2 1v5M120 277h4m-2 0v6m-2 0h4M120 288h5v7h-5v-7m2 1v5M120 300h4m-2 0v6m-2 0h4M120 315h5v7h-5v-7m2 1v5M120 327h4m-2 0v6m-2 0h4M120 337h5v7h-5v-7m2 1v5M120 349h4m-2 0v6m-2 0h4"/></g><g class="cover-code cover-code-1" opacity="0.35" fill="none" stroke="#aac49f" stroke-width="1"><path d="M138 -67h5v7h-5v-7m2 1v5M138 -55h4m-2 0v6m-2 0h4M138 -45h5v7h-5v-7m2 1v5M138 -33h4m-2 0v6m-2 0h4M138 -23h5v7h-5v-7m2 1v5M138 -11h4m-2 0v6m-2 0h4M138 5h5v7h-5v-7m2 1v5M138 17h4m-2 0v6m-2 0h4M138 27h5v7h-5v-7m2 1v5M138 39h4m-2 0v6m-2 0h4M138 49h5v7h-5v-7m2 1v5M138 61h4m-2 0v6m-2 0h4M138 77h5v7h-5v-7m2 1v5M138 89h4m-2 0v6m-2 0h4M138 99h5v7h-5v-7m2 1v5M138 111h4m-2 0v6m-2 0h4M138 121h5v7h-5v-7m2 1v5M138 133h4m-2 0v6m-2 0h4M138 149h5v7h-5v-7m2 1v5M138 161h4m-2 0v6m-2 0h4M138 171h5v7h-5v-7m2 1v5M138 183h4m-2 0v6m-2 0h4M138 193h5v7h-5v-7m2 1v5M138 205h4m-2 0v6m-2 0h4M138 221h5v7h-5v-7m2 1v5M138 233h4m-2 0v6m-2 0h4M138 243h5v7h-5v-7m2 1v5M138 255h4m-2 0v6m-2 0h4M138 265h5v7h-5v-7m2 1v5M138 277h4m-2 0v6m-2 0h4M138 293h5v7h-5v-7m2 1v5M138 305h4m-2 0v6m-2 0h4M138 315h5v7h-5v-7m2 1v5M138 327h4m-2 0v6m-2 0h4M138 337h5v7h-5v-7m2 1v5M138 349h4m-2 0v6m-2 0h4"/></g><g class="cover-code cover-code-2" opacity="0.45" fill="none" stroke="#aac49f" stroke-width="1"><path d="M156 -62h5v7h-5v-7m2 1v5M156 -50h4m-2 0v6m-2 0h4M156 -45h5v7h-5v-7m2 1v5M156 -33h4m-2 0v6m-2 0h4M156 -23h5v7h-5v-7m2 1v5M156 -11h4m-2 0v6m-2 0h4M156 10h5v7h-5v-7m2 1v5M156 22h4m-2 0v6m-2 0h4M156 27h5v7h-5v-7m2 1v5M156 39h4m-2 0v6m-2 0h4M156 49h5v7h-5v-7m2 1v5M156 61h4m-2 0v6m-2 0h4M156 82h5v7h-5v-7m2 1v5M156 94h4m-2 0v6m-2 0h4M156 99h5v7h-5v-7m2 1v5M156 111h4m-2 0v6m-2 0h4M156 121h5v7h-5v-7m2 1v5M156 133h4m-2 0v6m-2 0h4M156 154h5v7h-5v-7m2 1v5M156 166h4m-2 0v6m-2 0h4M156 171h5v7h-5v-7m2 1v5M156 183h4m-2 0v6m-2 0h4M156 193h5v7h-5v-7m2 1v5M156 205h4m-2 0v6m-2 0h4M156 226h5v7h-5v-7m2 1v5M156 238h4m-2 0v6m-2 0h4M156 243h5v7h-5v-7m2 1v5M156 255h4m-2 0v6m-2 0h4M156 265h5v7h-5v-7m2 1v5M156 277h4m-2 0v6m-2 0h4M156 298h5v7h-5v-7m2 1v5M156 310h4m-2 0v6m-2 0h4M156 315h5v7h-5v-7m2 1v5M156 327h4m-2 0v6m-2 0h4M156 337h5v7h-5v-7m2 1v5M156 349h4m-2 0v6m-2 0h4"/></g><g class="cover-code cover-code-0" opacity="0.25" fill="none" stroke="#aac49f" stroke-width="1"><path d="M174 -72h5v7h-5v-7m2 1v5M174 -60h4m-2 0v6m-2 0h4M174 -45h5v7h-5v-7m2 1v5M174 -33h4m-2 0v6m-2 0h4M174 -23h5v7h-5v-7m2 1v5M174 -11h4m-2 0v6m-2 0h4M174 0h5v7h-5v-7m2 1v5M174 12h4m-2 0v6m-2 0h4M174 27h5v7h-5v-7m2 1v5M174 39h4m-2 0v6m-2 0h4M174 49h5v7h-5v-7m2 1v5M174 61h4m-2 0v6m-2 0h4M174 72h5v7h-5v-7m2 1v5M174 84h4m-2 0v6m-2 0h4M174 99h5v7h-5v-7m2 1v5M174 111h4m-2 0v6m-2 0h4M174 121h5v7h-5v-7m2 1v5M174 133h4m-2 0v6m-2 0h4M174 144h5v7h-5v-7m2 1v5M174 156h4m-2 0v6m-2 0h4M174 171h5v7h-5v-7m2 1v5M174 183h4m-2 0v6m-2 0h4M174 193h5v7h-5v-7m2 1v5M174 205h4m-2 0v6m-2 0h4M174 216h5v7h-5v-7m2 1v5M174 228h4m-2 0v6m-2 0h4M174 243h5v7h-5v-7m2 1v5M174 255h4m-2 0v6m-2 0h4M174 265h5v7h-5v-7m2 1v5M174 277h4m-2 0v6m-2 0h4M174 288h5v7h-5v-7m2 1v5M174 300h4m-2 0v6m-2 0h4M174 315h5v7h-5v-7m2 1v5M174 327h4m-2 0v6m-2 0h4M174 337h5v7h-5v-7m2 1v5M174 349h4m-2 0v6m-2 0h4"/></g><path class="cover-screen-scan" d="M45 89h95v2H45Z" fill="#c9dfb4" opacity=".15"/>
</g>
<path d="M77 169h29l5 12H72Z" fill="#526e5d"/><path d="M30 183h121l9 13H22Z" fill="#8da58e"/><path d="M39 187h98m-88 4h74" stroke="#486553" stroke-width="2" stroke-dasharray="5 3"/>
<g transform="rotate(-19 62 213)"><rect x="45" y="206" width="32" height="12" rx="6" fill="#bd736b"/><path d="M61 206v12" stroke="#e1a995" stroke-width="1.5"/></g>
<g transform="rotate(16 118 211)"><rect x="102" y="205" width="32" height="12" rx="6" fill="#849cab"/><path d="M118 205v12" stroke="#b8cbd0" stroke-width="1.5"/></g>
</g></svg>
