<!-- A sprite that contains all SVG files -->
<svg xmlns="http://www.w3.org/2000/svg" xmlns:xlink="http://www.w3.org/1999/xlink">
  <symbol id="movie" xmlns="http://www.w3.org/2000/svg" viewBox="0 0 20 20" fill="currentColor">
    <path fill-rule="evenodd" d="M1 4.75C1 3.784 1.784 3 2.75 3h14.5c.966 0 1.75.784 1.75 1.75v10.515a1.75 1.75 0 0 1-1.75 1.75h-1.5c-.078 0-.155-.005-.23-.015H4.48c-.075.01-.152.015-.23.015h-1.5A1.75 1.75 0 0 1 1 15.265V4.75Zm16.5 7.385V11.01a.25.25 0 0 0-.25-.25h-1.5a.25.25 0 0 0-.25.25v1.125c0 .138.112.25.25.25h1.5a.25.25 0 0 0 .25-.25Zm0 2.005a.25.25 0 0 0-.25-.25h-1.5a.25.25 0 0 0-.25.25v1.125c0 .108.069.2.165.235h1.585a.25.25 0 0 0 .25-.25v-1.11Zm-15 1.11v-1.11a.25.25 0 0 1 .25-.25h1.5a.25.25 0 0 1 .25.25v1.125a.25.25 0 0 1-.164.235H2.75a.25.25 0 0 1-.25-.25Zm2-4.24v1.125a.25.25 0 0 1-.25.25h-1.5a.25.25 0 0 1-.25-.25V11.01a.25.25 0 0 1 .25-.25h1.5a.25.25 0 0 1 .25.25Zm13-2.005V7.88a.25.25 0 0 0-.25-.25h-1.5a.25.25 0 0 0-.25.25v1.125c0 .138.112.25.25.25h1.5a.25.25 0 0 0 .25-.25ZM4.25 7.63a.25.25 0 0 1 .25.25v1.125a.25.25 0 0 1-.25.25h-1.5a.25.25 0 0 1-.25-.25V7.88a.25.25 0 0 1 .25-.25h1.5Zm0-3.13a.25.25 0 0 1 .25.25v1.125a.25.25 0 0 1-.25.25h-1.5a.25.25 0 0 1-.25-.25V4.75a.25.25 0 0 1 .25-.25h1.5Zm11.5 1.625a.25.25 0 0 1-.25-.25V4.75a.25.25 0 0 1 .25-.25h1.5a.25.25 0 0 1 .25.25v1.125a.25.25 0 0 1-.25.25h-1.5Zm-9 3.125a.75.75 0 0 0 0 1.5h6.5a.75.75 0 0 0 0-1.5h-6.5Z" clip-rule="evenodd" />
  </symbol>
  <symbol id="tv" xmlns="http://www.w3.org/2000/svg" viewBox="0 0 20 20" fill="currentColor">
    <path d="M4 5h12v7H4V5Z" />
    <path fill-rule="evenodd" d="M1 3.5A1.5 1.5 0 0 1 2.5 2h15A1.5 1.5 0 0 1 19 3.5v10a1.5 1.5 0 0 1-1.5 1.5H12v1.5h3.25a.75.75 0 0 1 0 1.5H4.75a.75.75 0 0 1 0-1.5H8V15H2.5A1.5 1.5 0 0 1 1 13.5v-10Zm16.5 0h-15v10h15v-10Z" clip-rule="evenodd" />
  </symbol>
  <symbol id="home" xmlns="http://www.w3.org/2000/svg" viewBox="0 0 20 20" fill="currentColor">
    <path fill-rule="evenodd" d="M9.293 2.293a1 1 0 0 1 1.414 0l7 7A1 1 0 0 1 17 11h-1v6a1 1 0 0 1-1 1h-2a1 1 0 0 1-1-1v-3a1 1 0 0 0-1-1H9a1 1 0 0 0-1 1v3a1 1 0 0 1-1 1H5a1 1 0 0 1-1-1v-6H3a1 1 0 0 1-.707-1.707l7-7Z" clip-rule="evenodd" />
  </symbol>
  <symbol id="chevron-right" xmlns="http://www.w3.org/2000/svg" viewBox="0 0 20 20" fill="currentColor" class="w-5 h-5">
    <path fill-rule="evenodd" d="M8.22 5.22a.75.75 0 0 1 1.06 0l4.25 4.25a.75.75 0 0 1 0 1.06l-4.25 4.25a.75.75 0 0 1-1.06-1.06L11.94 10 8.22 6.28a.75.75 0 0 1 0-1.06Z" clip-rule="evenodd" />
  </symbol>
  <symbol id="tmdb" xmlns="http://www.w3.org/2000/svg" viewBox="0 0 190.24 81.52" fill="currentColor">
    <path d="M105.67 36.06h66.9a17.67 17.67 0 0 0 17.67-17.66A17.67 17.67 0 0 0 172.57.73h-66.9A17.67 17.67 0 0 0 88 18.4a17.67 17.67 0 0 0 17.67 17.66Zm-88 45h76.9a17.67 17.67 0 0 0 17.67-17.66 17.67 17.67 0 0 0-17.67-17.67h-76.9A17.67 17.67 0 0 0 0 63.4a17.67 17.67 0 0 0 17.67 17.66Zm-7.26-45.64h7.8V6.92h10.1V0h-28v6.9h10.1Zm28.1 0h7.8V8.25h.1l9 27.15h6l9.3-27.15h.1V35.4h7.8V0H66.76l-8.2 23.1h-.1L50.31 0h-11.8Zm113.92 20.25a15.07 15.07 0 0 0-4.52-5.52 18.57 18.57 0 0 0-6.68-3.08 33.54 33.54 0 0 0-8.07-1h-11.7v35.4h12.75a24.58 24.58 0 0 0 7.55-1.15 19.34 19.34 0 0 0 6.35-3.32 16.27 16.27 0 0 0 4.37-5.5 16.91 16.91 0 0 0 1.63-7.58 18.5 18.5 0 0 0-1.68-8.25ZM145 68.6a8.8 8.8 0 0 1-2.64 3.4 10.7 10.7 0 0 1-4 1.82 21.57 21.57 0 0 1-5 .55h-4.05v-21h4.6a17 17 0 0 1 4.67.63 11.66 11.66 0 0 1 3.88 1.87A9.14 9.14 0 0 1 145 59a9.87 9.87 0 0 1 1 4.52 11.89 11.89 0 0 1-1 5.08Zm44.63-.13a8 8 0 0 0-1.58-2.62 8.38 8.38 0 0 0-2.42-1.85 10.31 10.31 0 0 0-3.17-1v-.1a9.22 9.22 0 0 0 4.42-2.82 7.43 7.43 0 0 0 1.68-5 8.42 8.42 0 0 0-1.15-4.65 8.09 8.09 0 0 0-3-2.72 12.56 12.56 0 0 0-4.18-1.3 32.84 32.84 0 0 0-4.62-.33h-13.2v35.4h14.5a22.41 22.41 0 0 0 4.72-.5 13.53 13.53 0 0 0 4.28-1.65 9.42 9.42 0 0 0 3.1-3 8.52 8.52 0 0 0 1.2-4.68 9.39 9.39 0 0 0-.55-3.18Zm-19.42-15.75h5.3a10 10 0 0 1 1.85.18 6.18 6.18 0 0 1 1.7.57 3.39 3.39 0 0 1 1.22 1.13 3.22 3.22 0 0 1 .48 1.82 3.63 3.63 0 0 1-.43 1.8 3.4 3.4 0 0 1-1.12 1.2 4.92 4.92 0 0 1-1.58.65 7.51 7.51 0 0 1-1.77.2h-5.65Zm11.72 20a3.9 3.9 0 0 1-1.22 1.3 4.64 4.64 0 0 1-1.68.7 8.18 8.18 0 0 1-1.82.2h-7v-8h5.9a15.35 15.35 0 0 1 2 .15 8.47 8.47 0 0 1 2.05.55 4 4 0 0 1 1.57 1.18 3.11 3.11 0 0 1 .63 2 3.71 3.71 0 0 1-.43 1.92Z" />
  </symbol>
  <symbol id="trakt" xmlns="http://www.w3.org/2000/svg" xml:space="preserve" viewBox="0 0 144.8 144.8" fill="currentColor">
    <path d="M29.5 111.8c10.6 11.6 25.9 18.8 42.9 18.8 8.7 0 16.9-1.9 24.3-5.3L56.3 85l-26.8 26.8z"/><path d="M56.1 60.6 25.5 91.1 21.4 87l32.2-32.2 37.6-37.6c-5.9-2-12.2-3.1-18.8-3.1-32.2 0-58.3 26.1-58.3 58.3 0 13.1 4.3 25.2 11.7 35l30.5-30.5 2.1 2 43.7 43.7c.9-.5 1.7-1 2.5-1.6L56.3 72.7 27 102l-4.1-4.1 33.4-33.4 2.1 2 51 50.9c.8-.6 1.5-1.3 2.2-1.9l-55-55-.5.1z"/><path d="M115.7 111.4c9.3-10.3 15-24 15-39 0-23.4-13.8-43.5-33.6-52.8L60.4 56.2l55.3 55.2zM74.5 66.8l-4.1-4.1 28.9-28.9 4.1 4.1-28.9 28.9zm27.4-39.7L68.6 60.4l-4.1-4.1L97.8 23l4.1 4.1z"/><path d="M72.4 144.8C32.5 144.8 0 112.3 0 72.4 0 32.5 32.5 0 72.4 0s72.4 32.5 72.4 72.4c0 39.9-32.5 72.4-72.4 72.4zm0-137.5C36.5 7.3 7.3 36.5 7.3 72.4s29.2 65.1 65.1 65.1 65.1-29.2 65.1-65.1S108.3 7.3 72.4 7.3z"/>
  </symbol>
  <symbol id="arrow-right" xmlns="http://www.w3.org/2000/svg" viewBox="0 0 20 20" fill="currentColor">
    <path fill-rule="evenodd" d="M3 10a.75.75 0 0 1 .75-.75h10.638L10.23 5.29a.75.75 0 1 1 1.04-1.08l5.5 5.25a.75.75 0 0 1 0 1.08l-5.5 5.25a.75.75 0 1 1-1.04-1.08l4.158-3.96H3.75A.75.75 0 0 1 3 10Z" clip-rule="evenodd" />
  </symbol>
</svg>